<svg width="150" height="57" viewBox="0 0 150 57" fill="none" xmlns="http://www.w3.org/2000/svg">
<path d="M25.1153 16.834L20.5835 19.0881C18.7708 19.9994 17.6021 21.8458 17.5783 23.9081L17.3159 47.8159C17.3159 49.7103 19.2717 50.9333 20.9413 50.07L21.8953 49.5904C24.4713 48.2716 26.0931 45.6098 26.1409 42.7082L26.4271 17.6733C26.4271 17.0019 25.7354 16.5463 25.1391 16.858L25.1153 16.834Z" fill="#248E4F"/>
<path d="M15.1933 10.5988C9.49285 13.7162 4.72261 17.8168 3.60161 24.6031C2.4806 31.3893 4.96113 27.073 6.17754 26.2816L13.3806 21.5816C14.8355 20.6464 15.7657 18.704 15.7896 16.5938L15.8611 11.1744C15.8611 10.7187 15.5033 10.431 15.1933 10.6228V10.5988Z" fill="#248E4F"/>
<path d="M19.5299 7.31356L24.1865 5.97996C24.6682 5.842 25.1463 6.12894 25.277 6.59019L26.6034 11.2719C27.1066 13.0477 26.0731 14.9145 24.3068 15.4203L21.99 16.0838C20.2237 16.5897 18.367 15.5506 17.8638 13.7748L17.2039 11.4455C16.7007 9.66973 17.7342 7.80292 19.5005 7.29707L19.5299 7.31356Z" fill="#248E4F"/>
<path d="M31.865 40.1176L36.3968 37.8635C38.2094 36.9523 39.3782 35.1058 39.402 33.0436L39.6644 9.13569C39.6644 7.24129 37.7086 6.01832 36.039 6.88159L35.0849 7.36119C32.509 8.68008 30.8871 11.3418 30.8394 14.2434L30.5532 39.2783C30.5532 39.9497 31.2449 40.4054 31.8412 40.0936L31.865 40.1176Z" fill="#D6572B"/>
<path d="M41.7635 46.3532C47.464 43.2359 52.2342 39.1353 53.3552 32.349C54.4762 25.5627 51.9957 29.8791 50.7793 30.6704L43.5762 35.3705C42.1213 36.3057 41.1911 38.2481 41.1673 40.3583L41.0957 45.7777C41.0957 46.2333 41.4535 46.5211 41.7635 46.3293V46.3532Z" fill="#D6572B"/>
<path d="M37.4007 49.6415L32.7442 50.9751C32.2625 51.1131 31.7844 50.8261 31.6537 50.3649L30.3272 45.6832C29.8241 43.9074 30.8576 42.0406 32.6238 41.5348L34.9406 40.8712C36.7069 40.3654 38.5637 41.4044 39.0668 43.1803L39.7268 45.5095C40.2299 47.2854 39.1965 49.1522 37.4302 49.658L37.4007 49.6415Z" fill="#D6572B"/>
<path d="M72.9132 15.8988V41.0776H64.5653V15.8988H55.7881V8.80078H81.6666V15.8988H72.8894H72.9132Z" fill="black"/>
<path d="M80.355 41.0776L85.8169 8.80078H94.0694L100.509 26.0183L106.901 8.80078H115.154L120.616 41.0776H112.316L109.549 22.4933L101.964 41.0776H98.6488L91.4458 22.4933L88.679 41.0776H80.3788H80.355Z" fill="black"/>
<path d="M141.128 17.0498C140.221 16.3065 139.315 15.7549 138.409 15.3952C137.502 15.0355 136.62 14.8677 135.761 14.8677C134.903 14.8677 133.805 15.1314 133.114 15.635C132.422 16.1386 132.088 16.81 132.088 17.6493C132.088 18.4886 132.255 18.6805 132.589 19.0641C132.923 19.4238 133.376 19.7595 133.925 20.0233C134.473 20.2871 135.093 20.5269 135.809 20.7187C136.501 20.9106 137.192 21.1264 137.884 21.3662C140.603 22.2774 142.607 23.5004 143.871 25.0351C145.135 26.5698 145.755 28.5601 145.755 31.0061C145.755 33.452 145.469 34.1714 144.92 35.5143C144.371 36.8571 143.561 38.0082 142.487 38.9674C141.414 39.9266 140.126 40.6699 138.576 41.1975C137.025 41.725 135.284 41.9888 133.305 41.9888C129.25 41.9888 125.481 40.7659 122.023 38.3439L125.601 31.5816C126.841 32.6847 128.081 33.524 129.298 34.0755C130.514 34.627 131.73 34.8908 132.923 34.8908C134.115 34.8908 135.308 34.5791 135.976 33.9556C136.644 33.3321 136.978 32.6127 136.978 31.8214C136.978 31.0301 136.882 30.9102 136.715 30.5505C136.548 30.1908 136.262 29.855 135.857 29.5673C135.451 29.2795 134.95 28.9918 134.306 28.728C133.662 28.4642 132.899 28.1765 131.993 27.8647C130.919 27.529 129.846 27.1453 128.821 26.7377C127.795 26.33 126.865 25.7785 126.054 25.0831C125.243 24.3876 124.599 23.5244 124.098 22.4932C123.597 21.4621 123.359 20.1432 123.359 18.5366C123.359 16.9299 123.621 15.4911 124.146 14.1962C124.67 12.9013 125.41 11.7743 126.364 10.863C127.318 9.92782 128.487 9.20843 129.846 8.70485C131.23 8.20128 132.756 7.9375 134.473 7.9375C136.191 7.9375 137.717 8.15332 139.458 8.60894C141.199 9.04057 142.845 9.71201 144.443 10.5513L141.128 17.0978V17.0498Z" fill="black"/>
<path d="M60.4154 44.9143V48.3434H59.2705V44.9143H58.3403V43.9551H61.3456V44.9143H60.4154Z" fill="black"/>
<path d="M62.1805 47.0245C62.1805 47.4801 62.3951 47.6959 62.8244 47.6959C63.2538 47.6959 63.2299 47.6 63.3492 47.4082H64.3748C64.1601 48.1036 63.6592 48.4393 62.8483 48.4393C62.0374 48.4393 62.3713 48.3914 62.1566 48.3194C61.9419 48.2475 61.775 48.1276 61.6319 48.0077C61.4888 47.8638 61.3695 47.6959 61.298 47.5041C61.2264 47.3123 61.1787 47.0964 61.1787 46.8566C61.1787 46.6168 61.2264 46.3771 61.298 46.1852C61.3695 45.9934 61.4888 45.8255 61.6319 45.6816C61.775 45.5378 61.9419 45.4418 62.1566 45.3699C62.3713 45.298 62.5859 45.25 62.8483 45.25C63.1107 45.25 63.3253 45.298 63.5161 45.3699C63.7069 45.4418 63.8977 45.5617 64.017 45.7056C64.1601 45.8495 64.2555 46.0174 64.3271 46.2332C64.3986 46.449 64.4463 46.6648 64.4463 46.9286V47.0485H62.2282L62.1805 47.0245ZM63.3969 46.401C63.373 46.2572 63.3015 46.1373 63.1822 46.0413C63.063 45.9454 62.9437 45.8975 62.7767 45.8975C62.6098 45.8975 62.4905 45.9454 62.3713 46.0174C62.252 46.0893 62.2043 46.2332 62.1805 46.3771H63.373L63.3969 46.401Z" fill="black"/>
<path d="M66.9505 45.3473H67.9999V48.3448H66.9505V48.0091C66.7358 48.2968 66.4257 48.4407 66.0441 48.4407C65.6625 48.4407 65.6387 48.3928 65.4478 48.3208C65.257 48.2489 65.1139 48.129 64.9708 47.9851C64.8277 47.8412 64.7323 47.6734 64.6608 47.4815C64.5892 47.2897 64.5415 47.0739 64.5415 46.8341C64.5415 46.5943 64.5892 46.4264 64.6608 46.2346C64.7323 46.0427 64.8277 45.8749 64.9708 45.731C65.1139 45.5871 65.257 45.4672 65.4478 45.3953C65.6387 45.3234 65.8295 45.2754 66.0441 45.2754C66.4257 45.2754 66.712 45.3953 66.9743 45.6591V45.3713L66.9505 45.3473ZM65.6387 46.8341C65.6387 46.93 65.6387 47.0259 65.6864 47.0979C65.7102 47.1698 65.7579 47.2657 65.8295 47.3137C65.901 47.3856 65.9726 47.4336 66.0441 47.4576C66.1157 47.4815 66.2111 47.5055 66.3065 47.5055C66.4019 47.5055 66.4973 47.5055 66.5689 47.4576C66.6404 47.4336 66.712 47.3856 66.7835 47.3137C66.8551 47.2417 66.9028 47.1698 66.9266 47.0979C66.9743 47.0259 66.9743 46.93 66.9743 46.8341C66.9743 46.7382 66.9743 46.6422 66.9266 46.5703C66.8789 46.4984 66.8312 46.4024 66.7835 46.3545C66.712 46.2825 66.6404 46.2346 66.5689 46.2106C66.4973 46.1866 66.4019 46.1626 66.3065 46.1626C66.2111 46.1626 66.1157 46.1626 66.0441 46.2106C65.9726 46.2346 65.901 46.2825 65.8295 46.3545C65.7579 46.4264 65.7341 46.4984 65.6864 46.5703C65.6625 46.6422 65.6387 46.7382 65.6387 46.8341Z" fill="black"/>
<path d="M70.6473 46.3053C70.4565 46.1854 70.2896 46.1135 70.0987 46.1135C69.9079 46.1135 69.9079 46.1135 69.8125 46.1614C69.7171 46.1854 69.6456 46.2574 69.574 46.3053C69.5025 46.3773 69.4548 46.4492 69.4309 46.5211C69.3832 46.6171 69.3832 46.713 69.3832 46.8089C69.3832 46.9048 69.3832 47.0007 69.4309 47.0967C69.4786 47.1926 69.5263 47.2645 69.574 47.3125C69.6217 47.3604 69.7171 47.4324 69.8125 47.4564C69.9079 47.4803 70.0033 47.5043 70.0987 47.5043C70.2896 47.5043 70.4804 47.4324 70.6473 47.2885V48.1758C70.385 48.2956 70.1464 48.3436 69.9079 48.3436C69.6694 48.3436 69.4786 48.2957 69.2878 48.2237C69.097 48.1518 68.93 48.0559 68.7631 47.912C68.62 47.7681 68.5007 47.6002 68.4053 47.4084C68.3099 47.2166 68.2622 47.0007 68.2622 46.7609C68.2622 46.5211 68.3099 46.3053 68.3815 46.1135C68.4769 45.9217 68.5723 45.7538 68.7392 45.6099C68.9062 45.466 69.0493 45.3461 69.264 45.2742C69.4786 45.2023 69.6933 45.1543 69.9079 45.1543C70.1226 45.1543 70.4088 45.2023 70.6235 45.3222V46.2094L70.6473 46.3053Z" fill="black"/>
<path d="M71.0532 43.5H72.1027V45.7301C72.2458 45.5623 72.3889 45.4424 72.532 45.3704C72.6751 45.2985 72.8421 45.2745 73.0567 45.2745C73.4383 45.2745 73.7246 45.3704 73.9154 45.5862C74.1062 45.8021 74.2016 46.0658 74.2016 46.4255V48.3199H73.1521V46.8092C73.1521 46.6653 73.1521 46.5454 73.1283 46.4495C73.1283 46.3536 73.0567 46.2817 73.009 46.2337C72.9136 46.1618 72.7944 46.1138 72.6751 46.1138C72.5559 46.1138 72.365 46.1618 72.2696 46.2817C72.1742 46.3776 72.1265 46.5454 72.1265 46.7373V48.3439H71.0771V43.5H71.0532Z" fill="black"/>
<path d="M75.5369 47.0245C75.5369 47.4801 75.7516 47.6959 76.1809 47.6959C76.6102 47.6959 76.5864 47.6 76.7056 47.4082H77.7312C77.5166 48.1036 77.0157 48.4393 76.2047 48.4393C75.3938 48.4393 75.7277 48.3914 75.5131 48.3194C75.2984 48.2475 75.1314 48.1276 74.9883 48.0077C74.8452 47.8638 74.726 47.6959 74.6544 47.5041C74.5829 47.3123 74.5352 47.0964 74.5352 46.8566C74.5352 46.6168 74.5829 46.3771 74.6544 46.1852C74.726 45.9934 74.8452 45.8255 74.9883 45.6816C75.1314 45.5378 75.2984 45.4418 75.5131 45.3699C75.7277 45.298 75.9424 45.25 76.2047 45.25C76.4671 45.25 76.6818 45.298 76.8726 45.3699C77.0634 45.4418 77.2542 45.5617 77.3734 45.7056C77.5166 45.8495 77.612 46.0174 77.6835 46.2332C77.7551 46.449 77.8028 46.6648 77.8028 46.9286V47.0485H75.5846L75.5369 47.0245ZM76.7533 46.401C76.7295 46.2572 76.6579 46.1373 76.5387 46.0413C76.4194 45.9454 76.3001 45.8975 76.1332 45.8975C75.9662 45.8975 75.847 45.9454 75.7277 46.0174C75.6085 46.0893 75.5608 46.2332 75.5369 46.3771H76.7295L76.7533 46.401Z" fill="black"/>
<path d="M78.0176 45.3473H79.067V45.8269C79.1863 45.6591 79.3055 45.5152 79.4725 45.4193C79.6395 45.3233 79.8303 45.2754 80.0449 45.2754H80.1403C80.1642 45.2754 80.2119 45.2754 80.2596 45.2754V46.2825C80.1165 46.2106 79.9734 46.1866 79.8064 46.1866C79.5679 46.1866 79.3771 46.2586 79.2578 46.4024C79.1386 46.5463 79.067 46.7621 79.067 47.0499V48.3208H78.0176V45.3233V45.3473Z" fill="black"/>
<path d="M82.3345 46.1141C82.1437 46.0182 81.9529 45.9703 81.7621 45.9703C81.5713 45.9703 81.5951 45.9703 81.5236 46.0182C81.452 46.0662 81.4282 46.1141 81.4282 46.1861C81.4282 46.258 81.4282 46.258 81.4282 46.282C81.4282 46.282 81.452 46.33 81.4997 46.3539C81.5236 46.3539 81.5713 46.4019 81.6428 46.4019C81.7144 46.4019 81.7859 46.4259 81.9052 46.4499C82.1914 46.4978 82.4061 46.6177 82.5492 46.7616C82.6923 46.9055 82.7638 47.0973 82.7638 47.3371C82.7638 47.5769 82.74 47.6728 82.6684 47.8167C82.5969 47.9606 82.5015 48.0805 82.3822 48.1764C82.263 48.2723 82.1199 48.3443 81.929 48.3922C81.7382 48.4402 81.5713 48.4642 81.3566 48.4642C80.9512 48.4642 80.5695 48.3443 80.1641 48.1284L80.5457 47.3851C80.8319 47.5769 81.1181 47.6968 81.3805 47.6968C81.6428 47.6968 81.5474 47.6968 81.619 47.6249C81.6905 47.5769 81.7144 47.5289 81.7144 47.457C81.7144 47.3851 81.7144 47.3851 81.7144 47.3611C81.7144 47.3371 81.6905 47.3131 81.6428 47.2892C81.619 47.2892 81.5713 47.2412 81.4997 47.2412C81.4282 47.2412 81.3566 47.2172 81.2612 47.1932C80.9273 47.1213 80.7126 47.0254 80.5695 46.9055C80.4503 46.7856 80.3787 46.5937 80.3787 46.3779C80.3787 46.1621 80.4026 46.0662 80.4741 45.9223C80.5457 45.7784 80.6172 45.6825 80.7365 45.5866C80.8557 45.4907 80.9988 45.4187 81.1658 45.3708C81.3328 45.3228 81.5236 45.2988 81.7144 45.2988C82.0483 45.2988 82.3584 45.3708 82.6684 45.4907L82.3107 46.1861L82.3345 46.1141Z" fill="black"/>
<path d="M84.5527 48.3434L85.2921 43.9551H86.4131L87.2956 46.3051L88.1543 43.9551H89.2753L90.0147 48.3434H88.8937L88.512 45.8015L87.4864 48.3434H87.0333L86.0554 45.8015L85.6737 48.3434H84.5527Z" fill="black"/>
<path d="M92.4715 45.3473H93.5209V48.3448H92.4715V48.0091C92.2568 48.2968 91.9467 48.4407 91.5651 48.4407C91.1835 48.4407 91.1597 48.3928 90.9688 48.3208C90.778 48.2489 90.6349 48.129 90.4918 47.9851C90.3487 47.8412 90.2533 47.6734 90.1818 47.4815C90.1102 47.2897 90.0625 47.0739 90.0625 46.8341C90.0625 46.5943 90.1102 46.4264 90.1818 46.2346C90.2533 46.0427 90.3487 45.8749 90.4918 45.731C90.6349 45.5871 90.778 45.4672 90.9688 45.3953C91.1597 45.3234 91.3505 45.2754 91.5651 45.2754C91.9467 45.2754 92.233 45.3953 92.4953 45.6591V45.3713L92.4715 45.3473ZM91.1358 46.8341C91.1358 46.93 91.1358 47.0259 91.1835 47.0979C91.2074 47.1698 91.2551 47.2657 91.3266 47.3137C91.3982 47.3856 91.4697 47.4336 91.5413 47.4576C91.6128 47.4815 91.7082 47.5055 91.8036 47.5055C91.899 47.5055 91.9944 47.5055 92.066 47.4576C92.1376 47.4336 92.2091 47.3856 92.2807 47.3137C92.3522 47.2417 92.3999 47.1698 92.4238 47.0979C92.4715 47.0259 92.4715 46.93 92.4715 46.8341C92.4715 46.7382 92.4715 46.6422 92.4238 46.5703C92.3761 46.4984 92.3284 46.4024 92.2807 46.3545C92.2091 46.2825 92.1376 46.2346 92.066 46.2106C91.9944 46.1866 91.899 46.1626 91.8036 46.1626C91.7082 46.1626 91.6128 46.1626 91.5413 46.2106C91.4697 46.2346 91.3982 46.2825 91.3266 46.3545C91.2551 46.4264 91.2312 46.4984 91.1835 46.5703C91.1596 46.6422 91.1358 46.7382 91.1358 46.8341Z" fill="black"/>
<path d="M93.9023 45.3473H94.9517V45.731C95.0948 45.5631 95.2379 45.4432 95.381 45.3713C95.5241 45.2994 95.6911 45.2754 95.9058 45.2754C96.1204 45.2754 96.2874 45.2994 96.4305 45.3713C96.5736 45.4432 96.7167 45.5392 96.8121 45.6591C96.9075 45.755 96.9552 45.8749 96.9791 45.9948C97.0029 46.1147 97.0268 46.2586 97.0268 46.4264V48.3208H95.9773V46.8101C95.9773 46.6662 95.9773 46.5463 95.9535 46.4504C95.9535 46.3545 95.9058 46.2825 95.8342 46.2346C95.7865 46.1866 95.7388 46.1626 95.6673 46.1387C95.6196 46.1387 95.548 46.1147 95.4764 46.1147C95.3095 46.1147 95.1664 46.1626 95.071 46.2825C94.9756 46.3785 94.9279 46.5463 94.9279 46.7382V48.3448H93.8784V45.3473H93.9023Z" fill="black"/>
<path d="M99.722 45.3473H100.771V48.3448H99.722V48.0091C99.5073 48.2968 99.1972 48.4407 98.8156 48.4407C98.434 48.4407 98.4101 48.3928 98.2193 48.3208C98.0285 48.2489 97.8854 48.129 97.7423 47.9851C97.5992 47.8412 97.5038 47.6734 97.4322 47.4815C97.3607 47.2897 97.313 47.0739 97.313 46.8341C97.313 46.5943 97.3607 46.4264 97.4322 46.2346C97.5038 46.0427 97.5992 45.8749 97.7423 45.731C97.8854 45.5871 98.0285 45.4672 98.2193 45.3953C98.4101 45.3234 98.6009 45.2754 98.8156 45.2754C99.1972 45.2754 99.4834 45.3953 99.7458 45.6591V45.3713L99.722 45.3473ZM98.4101 46.8341C98.4101 46.93 98.4101 47.0259 98.4578 47.0979C98.4817 47.1698 98.5294 47.2657 98.6009 47.3137C98.6725 47.3856 98.7441 47.4336 98.8156 47.4576C98.8872 47.4815 98.9826 47.5055 99.078 47.5055C99.1734 47.5055 99.2688 47.5055 99.3403 47.4576C99.4119 47.4336 99.4834 47.3856 99.555 47.3137C99.6266 47.2417 99.6743 47.1698 99.6981 47.0979C99.7458 47.0259 99.7458 46.93 99.7458 46.8341C99.7458 46.7382 99.7458 46.6422 99.6981 46.5703C99.6504 46.4984 99.6027 46.4024 99.555 46.3545C99.4834 46.2825 99.4119 46.2346 99.3403 46.2106C99.2688 46.1866 99.1734 46.1626 99.078 46.1626C98.9826 46.1626 98.8872 46.1626 98.8156 46.2106C98.7441 46.2346 98.6725 46.2825 98.6009 46.3545C98.5294 46.4264 98.5055 46.4984 98.4578 46.5703C98.434 46.6422 98.4101 46.7382 98.4101 46.8341Z" fill="black"/>
<path d="M104.492 45.3465V48.1281C104.492 48.296 104.492 48.4399 104.468 48.5837C104.444 48.7276 104.421 48.8235 104.397 48.9434C104.349 49.0633 104.278 49.1832 104.182 49.3031C104.087 49.423 103.967 49.5189 103.824 49.5909C103.681 49.6628 103.538 49.7348 103.347 49.7827C103.18 49.8307 102.99 49.8547 102.775 49.8547C102.56 49.8547 102.322 49.8307 102.131 49.7587C101.94 49.7108 101.773 49.6149 101.63 49.5189C101.487 49.423 101.368 49.3031 101.272 49.1592C101.177 49.0154 101.129 48.8715 101.081 48.7036H102.274C102.346 48.8955 102.513 48.9914 102.775 48.9914C103.037 48.9914 103.157 48.9195 103.276 48.7996C103.395 48.6797 103.443 48.5118 103.443 48.272V47.9842C103.371 48.0562 103.3 48.1281 103.228 48.1761C103.157 48.224 103.085 48.272 103.013 48.296C102.942 48.32 102.87 48.3439 102.775 48.3679C102.703 48.3679 102.608 48.3679 102.513 48.3679C102.298 48.3679 102.107 48.32 101.916 48.248C101.749 48.1761 101.582 48.0802 101.463 47.9363C101.344 47.7924 101.225 47.6485 101.153 47.4567C101.081 47.2648 101.058 47.073 101.058 46.8332C101.058 46.5934 101.105 46.4016 101.177 46.1858C101.248 45.9939 101.368 45.8261 101.487 45.6822C101.63 45.5383 101.773 45.4184 101.964 45.3465C102.155 45.2745 102.346 45.2266 102.56 45.2266C102.918 45.2266 103.204 45.3704 103.443 45.6342V45.3225H104.492V45.3465ZM102.155 46.8332C102.155 46.9291 102.155 47.025 102.202 47.097C102.226 47.1689 102.274 47.2648 102.346 47.3128C102.417 47.3847 102.489 47.4327 102.56 47.4567C102.632 47.4807 102.727 47.5046 102.823 47.5046C102.918 47.5046 103.013 47.5046 103.085 47.4567C103.157 47.4087 103.228 47.3847 103.3 47.3128C103.371 47.2409 103.419 47.1689 103.443 47.097C103.49 47.025 103.49 46.9291 103.49 46.8332C103.49 46.7373 103.49 46.6414 103.443 46.5694C103.395 46.4975 103.347 46.4256 103.3 46.3536C103.228 46.2817 103.157 46.2337 103.085 46.2097C103.013 46.1858 102.918 46.1618 102.823 46.1618C102.727 46.1618 102.632 46.1618 102.56 46.2097C102.489 46.2577 102.417 46.3057 102.346 46.3536C102.274 46.4256 102.226 46.4735 102.202 46.5694C102.155 46.6414 102.155 46.7373 102.155 46.8332Z" fill="black"/>
<path d="M105.9 47.0245C105.9 47.4801 106.114 47.6959 106.544 47.6959C106.973 47.6959 106.949 47.6 107.068 47.4082H108.094C107.879 48.1036 107.378 48.4393 106.568 48.4393C105.757 48.4393 106.091 48.3914 105.876 48.3194C105.661 48.2475 105.494 48.1276 105.351 48.0077C105.208 47.8638 105.089 47.6959 105.017 47.5041C104.946 47.3123 104.898 47.0964 104.898 46.8566C104.898 46.6168 104.946 46.3771 105.017 46.1852C105.089 45.9934 105.208 45.8255 105.351 45.6816C105.494 45.5378 105.661 45.4418 105.876 45.3699C106.091 45.298 106.305 45.25 106.568 45.25C106.83 45.25 107.045 45.298 107.235 45.3699C107.426 45.4418 107.617 45.5617 107.736 45.7056C107.879 45.8495 107.975 46.0174 108.046 46.2332C108.118 46.449 108.166 46.6648 108.166 46.9286V47.0485H105.947L105.9 47.0245ZM107.14 46.401C107.116 46.2572 107.045 46.1373 106.925 46.0413C106.806 45.9454 106.687 45.8975 106.52 45.8975C106.353 45.8975 106.234 45.9454 106.114 46.0174C105.995 46.0893 105.947 46.2332 105.924 46.3771H107.116L107.14 46.401Z" fill="black"/>
<path d="M108.38 45.3473H109.43V45.707C109.716 45.4193 110.026 45.2994 110.384 45.2994C110.742 45.2994 111.171 45.4912 111.386 45.8509C111.624 45.4672 111.958 45.2754 112.387 45.2754C112.817 45.2754 112.65 45.2754 112.793 45.3473C112.912 45.3953 113.031 45.4432 113.103 45.5392C113.198 45.6351 113.27 45.731 113.317 45.8749C113.365 46.0188 113.389 46.1866 113.389 46.3785V48.3208H112.34V46.8341C112.34 46.6902 112.34 46.5463 112.316 46.4504C112.316 46.3545 112.268 46.2825 112.22 46.2346C112.173 46.1866 112.125 46.1387 112.077 46.1147C112.03 46.1147 111.958 46.0907 111.91 46.0907C111.576 46.0907 111.409 46.3305 111.409 46.8341V48.3208H110.36V46.8341C110.36 46.6902 110.36 46.5463 110.336 46.4504C110.336 46.3545 110.288 46.2825 110.241 46.2106C110.193 46.1626 110.145 46.1147 110.098 46.0907C110.05 46.0907 109.978 46.0667 109.883 46.0667C109.788 46.0667 109.764 46.0667 109.692 46.0907C109.621 46.1147 109.573 46.1387 109.549 46.2106C109.525 46.2825 109.477 46.3545 109.454 46.4504C109.43 46.5463 109.406 46.6902 109.406 46.8341V48.3208H108.356V45.3233L108.38 45.3473Z" fill="black"/>
<path d="M114.748 47.0245C114.748 47.4801 114.963 47.6959 115.392 47.6959C115.822 47.6959 115.798 47.6 115.917 47.4082H116.943C116.728 48.1036 116.227 48.4393 115.416 48.4393C114.605 48.4393 114.939 48.3914 114.724 48.3194C114.51 48.2475 114.343 48.1276 114.2 48.0077C114.057 47.8638 113.937 47.6959 113.866 47.5041C113.794 47.3123 113.747 47.0964 113.747 46.8566C113.747 46.6168 113.794 46.3771 113.866 46.1852C113.937 45.9934 114.057 45.8255 114.2 45.6816C114.343 45.5378 114.51 45.4418 114.724 45.3699C114.939 45.298 115.154 45.25 115.416 45.25C115.679 45.25 115.893 45.298 116.084 45.3699C116.275 45.4418 116.466 45.5617 116.585 45.7056C116.728 45.8495 116.823 46.0174 116.895 46.2332C116.966 46.449 117.014 46.6648 117.014 46.9286V47.0485H114.796L114.748 47.0245ZM115.989 46.401C115.965 46.2572 115.893 46.1373 115.774 46.0413C115.655 45.9454 115.535 45.8975 115.368 45.8975C115.202 45.8975 115.082 45.9454 114.963 46.0174C114.844 46.0893 114.796 46.2332 114.772 46.3771H115.965L115.989 46.401Z" fill="black"/>
<path d="M117.253 45.3473H118.302V45.731C118.445 45.5631 118.589 45.4432 118.732 45.3713C118.875 45.2994 119.042 45.2754 119.256 45.2754C119.471 45.2754 119.638 45.2994 119.781 45.3713C119.924 45.4432 120.067 45.5392 120.163 45.6591C120.258 45.755 120.306 45.8749 120.33 45.9948C120.354 46.1147 120.377 46.2586 120.377 46.4264V48.3208H119.328V46.8101C119.328 46.6662 119.328 46.5463 119.304 46.4504C119.304 46.3545 119.256 46.2825 119.185 46.2346C119.137 46.1866 119.089 46.1626 119.018 46.1387C118.97 46.1387 118.899 46.1147 118.827 46.1147C118.66 46.1147 118.517 46.1626 118.422 46.2825C118.326 46.3785 118.278 46.5463 118.278 46.7382V48.3448H117.229V45.3473H117.253Z" fill="black"/>
<path d="M121.928 46.2335V48.3437H120.878V46.2335H120.521V45.3462H120.878V44.459H121.928V45.3462H122.524V46.2335H121.928Z" fill="black"/>
<path d="M126.745 45.0578C126.626 44.9619 126.507 44.89 126.364 44.842C126.244 44.794 126.125 44.7701 126.006 44.7701C125.887 44.7701 125.744 44.794 125.648 44.866C125.553 44.9379 125.505 45.0338 125.505 45.1298C125.505 45.2257 125.505 45.2736 125.577 45.3216C125.648 45.3696 125.672 45.4175 125.767 45.4415C125.839 45.4895 125.934 45.5134 126.03 45.5374C126.125 45.5614 126.221 45.5854 126.316 45.6333C126.698 45.7532 126.96 45.9211 127.127 46.1369C127.294 46.3527 127.389 46.6165 127.389 46.9522C127.389 47.2879 127.342 47.3839 127.27 47.5757C127.199 47.7675 127.079 47.9114 126.936 48.0553C126.793 48.1752 126.602 48.2951 126.411 48.367C126.197 48.439 125.958 48.4869 125.696 48.4869C125.147 48.4869 124.623 48.3191 124.169 47.9834L124.646 47.0721C124.813 47.216 124.98 47.3359 125.147 47.4078C125.314 47.4798 125.481 47.5277 125.648 47.5277C125.815 47.5277 125.982 47.4798 126.054 47.4078C126.149 47.3119 126.197 47.216 126.197 47.1201C126.197 47.0242 126.197 47.0002 126.173 46.9522C126.149 46.9043 126.101 46.8563 126.054 46.8083C126.006 46.7604 125.934 46.7364 125.839 46.6884C125.744 46.6645 125.648 46.6165 125.529 46.5686C125.386 46.5206 125.243 46.4726 125.1 46.4247C124.957 46.3767 124.837 46.3048 124.718 46.2089C124.599 46.1129 124.527 45.993 124.456 45.8492C124.384 45.7053 124.36 45.5374 124.36 45.3216C124.36 45.1058 124.384 44.9139 124.48 44.7221C124.551 44.5542 124.646 44.3864 124.79 44.2665C124.909 44.1466 125.076 44.0507 125.267 43.9787C125.457 43.9068 125.672 43.8828 125.887 43.8828C126.101 43.8828 126.34 43.9068 126.555 43.9787C126.793 44.0507 127.008 44.1226 127.222 44.2425L126.769 45.1298L126.745 45.0578Z" fill="black"/>
<path d="M128.749 47.9355L127.318 45.3457H128.534L129.321 46.8804L130.085 45.3457H131.301L128.916 49.8299H127.747L128.773 47.9355H128.749Z" fill="black"/>
<path d="M133.162 46.1141C132.971 46.0182 132.78 45.9703 132.589 45.9703C132.398 45.9703 132.422 45.9703 132.351 46.0182C132.279 46.0662 132.255 46.1141 132.255 46.1861C132.255 46.258 132.255 46.258 132.255 46.282C132.255 46.282 132.279 46.33 132.327 46.3539C132.351 46.3539 132.398 46.4019 132.47 46.4019C132.542 46.4019 132.613 46.4259 132.732 46.4499C133.019 46.4978 133.233 46.6177 133.376 46.7616C133.519 46.9055 133.591 47.0973 133.591 47.3371C133.591 47.5769 133.567 47.6728 133.496 47.8167C133.424 47.9606 133.329 48.0805 133.209 48.1764C133.09 48.2723 132.947 48.3443 132.756 48.3922C132.565 48.4402 132.398 48.4642 132.184 48.4642C131.778 48.4642 131.397 48.3443 130.991 48.1284L131.373 47.3851C131.659 47.5769 131.945 47.6968 132.208 47.6968C132.47 47.6968 132.375 47.6968 132.446 47.6249C132.518 47.5769 132.542 47.5289 132.542 47.457C132.542 47.3851 132.542 47.3851 132.542 47.3611C132.542 47.3371 132.518 47.3131 132.47 47.2892C132.446 47.2892 132.398 47.2412 132.327 47.2412C132.255 47.2412 132.184 47.2172 132.088 47.1932C131.754 47.1213 131.54 47.0254 131.397 46.9055C131.277 46.7856 131.206 46.5937 131.206 46.3779C131.206 46.1621 131.23 46.0662 131.301 45.9223C131.373 45.7784 131.444 45.6825 131.564 45.5866C131.683 45.4907 131.826 45.4187 131.993 45.3708C132.16 45.3228 132.351 45.2988 132.542 45.2988C132.875 45.2988 133.186 45.3708 133.496 45.4907L133.138 46.1861L133.162 46.1141Z" fill="black"/>
<path d="M135.069 46.2335V48.3437H134.02V46.2335H133.662V45.3462H134.02V44.459H135.069V45.3462H135.666V46.2335H135.069Z" fill="black"/>
<path d="M136.739 47.0245C136.739 47.4801 136.954 47.6959 137.383 47.6959C137.812 47.6959 137.789 47.6 137.908 47.4082H138.933C138.719 48.1036 138.218 48.4393 137.407 48.4393C136.596 48.4393 136.93 48.3914 136.715 48.3194C136.501 48.2475 136.334 48.1276 136.19 48.0077C136.047 47.8638 135.928 47.6959 135.857 47.5041C135.785 47.3123 135.737 47.0964 135.737 46.8566C135.737 46.6168 135.785 46.3771 135.857 46.1852C135.928 45.9934 136.047 45.8255 136.19 45.6816C136.334 45.5378 136.501 45.4418 136.715 45.3699C136.93 45.298 137.145 45.25 137.407 45.25C137.669 45.25 137.884 45.298 138.075 45.3699C138.266 45.4418 138.456 45.5617 138.576 45.7056C138.719 45.8495 138.814 46.0174 138.886 46.2332C138.957 46.449 139.005 46.6648 139.005 46.9286V47.0485H136.787L136.739 47.0245ZM137.979 46.401C137.955 46.2572 137.884 46.1373 137.765 46.0413C137.645 45.9454 137.526 45.8975 137.359 45.8975C137.192 45.8975 137.073 45.9454 136.954 46.0174C136.834 46.0893 136.787 46.2332 136.763 46.3771H137.955L137.979 46.401Z" fill="black"/>
<path d="M139.244 45.3473H140.293V45.707C140.579 45.4193 140.889 45.2994 141.247 45.2994C141.605 45.2994 142.034 45.4912 142.249 45.8509C142.487 45.4672 142.821 45.2754 143.251 45.2754C143.68 45.2754 143.513 45.2754 143.656 45.3473C143.775 45.3953 143.895 45.4432 143.966 45.5392C144.062 45.6351 144.133 45.731 144.181 45.8749C144.228 46.0188 144.252 46.1866 144.252 46.3785V48.3208H143.203V46.8341C143.203 46.6902 143.203 46.5463 143.179 46.4504C143.179 46.3545 143.131 46.2825 143.084 46.2346C143.036 46.1866 142.988 46.1387 142.941 46.1147C142.893 46.1147 142.821 46.0907 142.774 46.0907C142.44 46.0907 142.273 46.3305 142.273 46.8341V48.3208H141.223V46.8341C141.223 46.6902 141.223 46.5463 141.199 46.4504C141.199 46.3545 141.152 46.2825 141.104 46.2106C141.056 46.1626 141.009 46.1147 140.961 46.0907C140.913 46.0907 140.842 46.0667 140.746 46.0667C140.651 46.0667 140.627 46.0667 140.555 46.0907C140.484 46.1147 140.436 46.1387 140.412 46.2106C140.388 46.2825 140.341 46.3545 140.317 46.4504C140.293 46.5463 140.269 46.6902 140.269 46.8341V48.3208H139.22V45.3233L139.244 45.3473Z" fill="black"/>
</svg>
